<svg xmlns="http://www.w3.org/2000/svg" width="61" height="61"><style/><g id="Services"><g id="Bulb"><path id="bulb" d="M31 14c-6.08 0-11 4.92-11 11 0 4.03 3.69 8.3 5.03 12.05 2 5.6 1.78 8.95 5.97 8.95 4.25 0 3.96-3.33 5.97-8.92C38.32 33.32 42 29 42 25c0-6.08-4.92-11-11-11zm2.59 27.18l-4.96.62c-.17-.52-.36-1.12-.59-1.9-.01-.01-.01-.02-.01-.03l6.19-.77c-.09.29-.19.6-.27.88-.13.45-.25.84-.36 1.2zm-5.85-2.27c-.19-.6-.39-1.24-.62-1.91h7.77c-.13.36-.25.72-.35 1.06l-6.8.85zM31 44c-1.01 0-1.48-.12-2-1.25l4.24-.53C32.63 43.87 32.18 44 31 44zm4.67-9h-9.33c-.5-1.08-1.1-2.16-1.69-3.22C23.35 29.45 22 27.03 22 25c0-4.96 4.04-9 9-9s9 4.04 9 9c0 2.02-1.35 4.45-2.66 6.8-.58 1.05-1.17 2.13-1.67 3.2zM31 19c-3.31 0-6 2.69-6 6 0 .28.22.5.5.5s.5-.22.5-.5c0-2.76 2.24-5 5-5 .28 0 .5-.22.5-.5s-.22-.5-.5-.5z" fill="#666d89"/><path id="Ellipse" d="M30.5 1C46.79 1 60 14.21 60 30.5S46.79 60 30.5 60 1 46.79 1 30.5 14.21 1 30.5 1z" fill="none" stroke="#666d89" stroke-width="2"/></g></g></svg>