<svg xmlns="http://www.w3.org/2000/svg" width="61" height="61"><style/><g id="Services"><g id="Bubble"><path id="bubble" d="M31 22c-5.96 0-11 3.21-11 7 0 .28.22.5.5.5s.5-.22.5-.5c0-3.2 4.67-6 10-6 .28 0 .5-.22.5-.5s-.22-.5-.5-.5zm0-5c-8.84 0-16 5.37-16 12 0 4.13 2.78 7.77 7.01 9.93 0 .02-.01.04-.01.07 0 1.79-1.34 3.72-1.93 4.74-.04.11-.07.23-.07.35 0 .5.41.91.91.91.09 0 .26-.03.25-.01 3.13-.51 6.07-3.39 6.75-4.22 1 .15 2.03.23 3.09.23 8.84 0 16-5.37 16-12s-7.16-12-16-12zm0 22c-.92 0-1.86-.07-2.8-.21a2.01 2.01 0 00-1.83.71c-.43.52-1.65 1.69-3.09 2.54.39-.89.7-1.9.72-2.93 0-.06.01-.13.01-.18 0-.76-.42-1.44-1.09-1.79C19.21 35.25 17 32.21 17 29c0-5.51 6.28-10 14-10s14 4.49 14 10-6.28 10-14 10z" fill="#666d89"/><path id="Ellipse" d="M30.5 1C46.79 1 60 14.21 60 30.5S46.79 60 30.5 60 1 46.79 1 30.5 14.21 1 30.5 1z" fill="none" stroke="#666d89" stroke-width="2"/></g></g></svg>