<svg xmlns="http://www.w3.org/2000/svg" width="62" height="61"><style/><g id="Services"><g id="Heart"><path id="heart" d="M44.19 19.79c-3.63-3.59-9.43-3.66-13.19-.29-3.76-3.37-9.56-3.3-13.19.29a9.404 9.404 0 000 13.4c1.07 1.06 11.05 10.93 11.05 10.93a3.048 3.048 0 004.28 0l11.05-10.93c3.74-3.7 3.74-9.7 0-13.4zm-1.42 11.99L31.71 42.71c-.39.39-1.03.39-1.42 0L19.24 31.78a7.413 7.413 0 010-10.58c2.84-2.81 7.41-2.91 10.4-.22L31 22.2l1.36-1.22c2.99-2.69 7.56-2.59 10.41.22a7.43 7.43 0 010 10.58zm-18.52-9.75c-2.35 0-4.25 1.9-4.25 4.24 0 .28.23.5.5.5.28 0 .5-.22.5-.5 0-1.79 1.46-3.24 3.25-3.24.28 0 .5-.23.5-.5 0-.28-.22-.5-.5-.5z" fill="#666d89"/><path id="Ellipse" d="M30.5 1C46.79 1 60 14.21 60 30.5S46.79 60 30.5 60 1 46.79 1 30.5 14.21 1 30.5 1z" fill="none" stroke="#666d89" stroke-width="2"/></g></g></svg>