<svg xmlns="http://www.w3.org/2000/svg" width="62" height="61"><style/><g id="Services"><g id="Pen"><path id="pen" d="M44.4 17.58C42.75 15.94 40.59 15 38.45 15c-1.8 0-3.46.67-4.67 1.88l-4.87 4.9c-.01.01-.03.02-.04.04-.01.01-.02.02-.02.03L18.52 32.26c-.48.47-.82 1.06-1.02 1.7l-2.34 8.51c-.01.02-.16.69-.16 1.03 0 1.93 1.57 3.5 3.5 3.5.39 0 1.13-.18 1.16-.19l8.48-2.23a4.04 4.04 0 001.7-1.01l15.27-15.38c2.77-2.78 2.46-7.44-.71-10.61zM31.01 38.8c-.08-.91-.33-1.79-.71-2.63l9.45-9.46c.58 1.83.28 3.74-.99 5.01 0 .01-.01.01-.02.02l.01.01-7.73 7.79c.01-.25.02-.49-.01-.74zm-1.22-3.54c-.37-.62-.79-1.21-1.32-1.73-.61-.61-1.31-1.09-2.04-1.49l9.53-9.54c.75.34 1.46.81 2.1 1.44.54.54.96 1.14 1.28 1.77l-9.55 9.55zm-4.3-3.7c-.93-.37-1.9-.58-2.87-.6l7.7-7.76c1.18-1.15 2.9-1.48 4.59-1.06l-9.42 9.42zm-6.32 13.31c-.11.03-.45.11-.68.13-.82-.01-1.49-.68-1.49-1.5.01-.17.08-.46.1-.56l1.05-3.82c1.15-.03 2.38.42 3.34 1.39.99.98 1.45 2.23 1.4 3.39l-3.72.97zm4.7-1.23c-.02-1.34-.57-2.74-1.67-3.84-1.04-1.04-2.4-1.65-3.76-1.7l.99-3.61c.07-.24.22-.47.39-.68 2.01-1.44 5.09-1.01 7.24 1.13 2.26 2.27 2.61 5.59.87 7.57-.12.06-.23.12-.36.16l-3.7.97zm19.82-16.87l-1.68 1.7c0-.23.03-.44 0-.67-.17-1.94-1.07-3.81-2.54-5.27-1.63-1.63-3.79-2.57-5.93-2.57l1.66-1.67c.83-.83 1.98-1.29 3.25-1.29 1.61 0 3.26.73 4.53 2 1.2 1.19 1.91 2.67 2.01 4.16.09 1.4-.37 2.68-1.3 3.61z" fill="#666d89"/><path id="Ellipse" d="M30.5 1C46.79 1 60 14.21 60 30.5S46.79 60 30.5 60 1 46.79 1 30.5 14.21 1 30.5 1z" fill="none" stroke="#666d89" stroke-width="2"/></g></g></svg>