<svg xmlns="http://www.w3.org/2000/svg" width="62" height="61"><style/><g id="Services"><g id="Phone"><path id="phone" d="M39 15H23c-1.66 0-3 1.34-3 3v26c0 1.66 1.34 3 3 3h16c1.66 0 3-1.34 3-3V18c0-1.66-1.34-3-3-3zm1 29c0 .55-.45 1-1 1H23c-.55 0-1-.45-1-1v-2h18v2zm0-3H22V21h18v20zm0-21H22v-2c0-.55.45-1 1-1h16c.55 0 1 .45 1 1v2zm-7-1.5c0 .28-.22.5-.5.5h-3c-.28 0-.5-.22-.5-.5s.22-.5.5-.5h3c.28 0 .5.22.5.5zm-1 25c0 .27-.22.5-.5.5h-1c-.28 0-.5-.23-.5-.5 0-.28.22-.5.5-.5h1c.28 0 .5.22.5.5z" fill="#666d89"/><path id="Ellipse" d="M30.5 1C46.79 1 60 14.21 60 30.5S46.79 60 30.5 60 1 46.79 1 30.5 14.21 1 30.5 1z" fill="none" stroke="#666d89" stroke-width="2"/></g></g></svg>